
<svg xmlns="http://www.w3.org/2000/svg" width="15" height="19" viewBox="0 0 15 19" fill="none">
    <path
        d="M7.1 8.73C7.54467 8.73 7.92467 8.57167 8.24 8.255C8.55533 7.93833 8.71267 7.55733 8.712 7.112C8.71133 6.66667 8.55267 6.28667 8.236 5.972C7.91933 5.65733 7.53833 5.5 7.093 5.5C6.64767 5.5 6.26767 5.65867 5.953 5.976C5.63833 6.29333 5.481 6.67433 5.481 7.119C5.481 7.56367 5.63933 7.94367 5.956 8.259C6.27267 8.57433 6.654 8.73167 7.1 8.731M7.096 16.677C8.976 15.041 10.462 13.3773 11.554 11.686C12.646 9.99467 13.192 8.53133 13.192 7.296C13.192 5.46667 12.613 3.95667 11.455 2.766C10.2957 1.576 8.84267 0.981 7.096 0.981C5.34933 0.981 3.89633 1.576 2.737 2.766C1.57767 3.956 0.998667 5.466 1 7.296C1 8.53067 1.546 9.994 2.638 11.686C3.73 13.378 5.216 15.0417 7.096 16.677ZM7.096 18.019C4.746 15.941 2.976 14.003 1.786 12.205C0.595334 10.407 0 8.77067 0 7.296C0 5.18067 0.688667 3.436 2.066 2.062C3.444 0.687333 5.12067 0 7.096 0C9.07133 0 10.748 0.687333 12.126 2.062C13.5033 3.436 14.192 5.18067 14.192 7.296C14.192 8.77067 13.597 10.407 12.407 12.205C11.2163 14.003 9.446 15.941 7.096 18.019Z"
        fill="#F5F1EE"></path>
</svg> 