
<svg xmlns="http://www.w3.org/2000/svg" width="45" height="40" viewBox="0 0 45 40" fill="none">
    <path
        d="M19.5682 36.7476L19.5675 36.747C13.7637 31.6482 8.98708 27.4465 5.6556 23.4977C2.32906 19.5549 0.5 15.9285 0.5 11.9891C0.5 5.54495 5.70549 0.5 12.375 0.5C16.1446 0.5 19.7666 2.20265 22.1257 4.86561L22.5 5.28808L22.8743 4.86561C25.2334 2.20265 28.8554 0.5 32.625 0.5C39.2945 0.5 44.5 5.54495 44.5 11.9891C44.5 15.9285 42.6709 19.5549 39.3444 23.4977C36.0129 27.4465 31.2363 31.6482 25.4325 36.747L25.4318 36.7476L22.5 39.3333L19.5682 36.7476Z"
        stroke="#4D4543"></path>
</svg> 